<svg width="21" height="19" viewBox="0 0 21 19" fill="none" xmlns="http://www.w3.org/2000/svg">
<path d="M10.146 2.47733L10.4095 2.57315L10.6853 2.523C15.7448 1.6031 19.9641 4.58775 19.9641 9.00378C19.9641 13.5833 15.8269 17.4679 10.5 17.4679C5.17314 17.4679 1.0359 13.5833 1.0359 9.00378C1.0359 4.38384 5.40589 0.753587 10.146 2.47733Z" fill="#D94C1D"/>
<path d="M10.146 2.47733L10.4095 2.57315L10.6853 2.523C15.7448 1.6031 19.9641 4.58775 19.9641 9.00378C19.9641 13.5833 15.8269 17.4679 10.5 17.4679C5.17314 17.4679 1.0359 13.5833 1.0359 9.00378C1.0359 4.38384 5.40589 0.753587 10.146 2.47733Z" fill="url(#paint0_radial_23_43)" fill-opacity="0.2"/>
<path d="M10.146 2.47733L10.4095 2.57315L10.6853 2.523C15.7448 1.6031 19.9641 4.58775 19.9641 9.00378C19.9641 13.5833 15.8269 17.4679 10.5 17.4679C5.17314 17.4679 1.0359 13.5833 1.0359 9.00378C1.0359 4.38384 5.40589 0.753587 10.146 2.47733Z" stroke="#321707" stroke-width="2.07179"/>
<path d="M10.9 6.38477C11.4591 6.38477 11.9922 6.13718 12.4492 5.81564C12.9124 5.48977 13.3431 5.056 13.7087 4.60784C14.0754 4.15841 14.389 3.67937 14.6135 3.25049C14.7257 3.0361 14.8191 2.82769 14.8855 2.63665C14.9491 2.45375 15 2.25352 15 2.06617C15 1.97456 14.9883 1.846 14.924 1.71882C14.8496 1.57159 14.7189 1.45631 14.5488 1.4084C14.4021 1.36706 14.2696 1.38822 14.1863 1.40945C14.0981 1.43193 14.0163 1.46729 13.9475 1.50157C13.7355 1.60722 13.4601 1.80259 13.1882 1.99546C13.1364 2.03221 13.0848 2.06888 13.0337 2.10481C12.6893 2.34705 12.3166 2.59866 11.9366 2.79007C11.5523 2.98362 11.2019 3.09394 10.9 3.09394C10.2654 3.09394 9.79193 2.95949 9.40513 2.84967C9.33695 2.83031 9.27146 2.81171 9.20826 2.79475C9.10593 2.7673 8.9906 2.73916 8.87881 2.72649C8.77167 2.71435 8.61273 2.70915 8.45085 2.77613C8.04255 2.94506 8 3.36543 8 3.59396C8 4.14029 8.2319 4.82547 8.69598 5.37741C9.17357 5.94542 9.90865 6.38477 10.9 6.38477Z" fill="#7F8A20" stroke="#321707"/>
<defs>
<radialGradient id="paint0_radial_23_43" cx="0" cy="0" r="1" gradientUnits="userSpaceOnUse" gradientTransform="translate(10.4836 9.63699) rotate(89.8941) scale(8.86668 9.80002)">
<stop stop-color="#FBE9CA"/>
<stop offset="1" stop-color="#DE1A00"/>
</radialGradient>
</defs>
</svg>
