<svg width="800" height="800" viewBox="0 0 800 800" fill="none" xmlns="http://www.w3.org/2000/svg">
<path d="M266.37 768.344C286.025 740.095 290.295 708.572 278.418 674.914C277.501 672.318 279.305 669.509 282.055 669.384L327.74 667.309C329.443 667.232 331.016 668.251 331.619 669.845C348.463 714.419 339.731 751.819 304.492 780.323C294.754 788.2 283.269 786.039 267.157 773.84C265.444 772.543 265.143 770.107 266.37 768.344Z" fill="#D94C1D"/>
<path d="M276.431 669.64C289.94 703.386 289.033 738.778 271.451 767.911C268.676 772.51 269.334 778.675 273.915 781.48C287.058 789.529 295.775 787.374 304.492 780.323C340.431 751.253 348.8 712.929 330.585 667.18" stroke="#321707" stroke-width="16" stroke-linecap="round" stroke-linejoin="round"/>
<path d="M343.001 788.194C343.001 797.974 323.897 800 300.33 800C276.763 800 254.481 796.498 254.481 786.718C251.757 766.057 276.763 752.775 300.33 752.775C323.897 752.775 348.308 762.121 343.001 788.194Z" fill="#321707"/>
<path d="M482.571 767.329C500.013 739.23 486.799 706.824 470.121 673.049C468.856 670.489 470.586 667.456 473.434 667.26L508.39 664.851C509.584 664.768 510.768 665.237 511.578 666.118C550.18 708.089 546.958 752.634 519.482 776.654C518.94 777.127 518.27 777.437 517.559 777.545C505.058 779.446 495.337 777.758 484.36 773.409C481.978 772.465 481.22 769.506 482.571 767.329Z" fill="#D94C1D"/>
<path d="M467.446 667.672C483.999 700.752 498.624 732.677 486.087 760.72C483.472 766.568 485.292 774.059 491.435 775.874C499.263 778.188 506.889 778.945 515.929 777.775C517.712 777.544 519.386 776.771 520.708 775.553C547.343 751.018 549.653 706.465 510.277 664.721" stroke="#321707" stroke-width="16" stroke-linecap="round" stroke-linejoin="round"/>
<path d="M567.385 785.735C567.385 795.515 546.666 797.541 521.108 797.541C495.55 797.541 471.385 794.039 471.385 784.259C468.431 763.598 495.55 750.316 521.108 750.316C546.666 750.316 573.785 756.711 567.385 785.735Z" fill="#321707"/>
<path d="M708.062 416.298C708.062 565.877 571.273 688.696 400.492 688.696C229.712 688.696 92.9231 565.877 92.9231 416.298C92.9231 266.72 229.712 143.901 400.492 143.901C571.273 143.901 708.062 266.72 708.062 416.298Z" fill="#D94C1D"/>
<path d="M708.062 416.298C708.062 565.877 571.273 688.696 400.492 688.696C229.712 688.696 92.9231 565.877 92.9231 416.298C92.9231 266.72 229.712 143.901 400.492 143.901C571.273 143.901 708.062 266.72 708.062 416.298Z" fill="url(#paint0_radial_7_141)" fill-opacity="0.2"/>
<path d="M708.062 416.298C708.062 565.877 571.273 688.696 400.492 688.696C229.712 688.696 92.9231 565.877 92.9231 416.298C92.9231 266.72 229.712 143.901 400.492 143.901C571.273 143.901 708.062 266.72 708.062 416.298Z" stroke="#321707" stroke-width="16"/>
<path d="M579.2 244.124C576.637 247.951 569.194 242.231 562.462 237.729C555.729 233.227 551.975 229.638 554.539 225.811C557.102 221.984 564.637 222.531 571.37 227.033C578.102 231.535 581.763 240.297 579.2 244.124Z" fill="#E86227"/>
<path d="M374.892 139.984C311.877 36.6794 216.862 77.5093 202.092 101.614C258.215 110.96 274.462 163.596 348.308 156.709C279.877 168.515 287.262 223.119 287.262 223.119C287.262 223.119 369.477 223.119 405.908 178.846C444.308 213.773 475.815 220.659 517.661 223.119C517.661 164.088 461.046 156.709 461.046 156.709C517.661 156.709 544.246 109.484 581.169 106.041C562.461 81.4446 485.662 40.1229 419.2 139.984C445.292 -7.59407 337.969 -10.0536 333.046 30.2843C351.262 51.4371 387.692 93.7426 374.892 139.984Z" fill="#7F8A20" stroke="#321707" stroke-width="16" stroke-linejoin="round"/>
<g filter="url(#filter0_i_7_141)">
<path d="M221 407C225 430.5 238.32 438.5 238.32 454.25C238.32 470 203.679 471.5 203.679 454.25C203.679 437 218 431.5 221 407Z" fill="#79CBCD"/>
</g>
<path d="M224.943 406.329C224.61 404.371 222.891 402.955 220.906 403.001C218.921 403.048 217.271 404.543 217.03 406.514C215.634 417.914 211.658 424.828 207.784 431.286C207.628 431.548 207.47 431.81 207.312 432.072C203.561 438.308 199.679 444.763 199.679 454.25C199.679 460.147 202.74 464.477 206.965 467.13C211.045 469.691 216.202 470.73 221.087 470.624C225.979 470.518 231.069 469.255 235.07 466.686C239.145 464.068 242.32 459.888 242.32 454.25C242.32 445.397 238.597 438.688 234.922 432.067C234.834 431.908 234.746 431.75 234.658 431.591C230.858 424.739 226.822 417.366 224.943 406.329Z" stroke="#321707" stroke-width="8" stroke-linejoin="round"/>
<path d="M132.969 271.18C134.018 269.944 135.512 269.291 137.126 269.436C157.857 271.286 304.006 284.04 403.446 284.954C501.64 285.856 647.566 274.834 667.102 273.319C668.536 273.208 669.889 273.717 670.896 274.744C686.662 290.839 699.947 316.293 699.488 342.179C699.449 344.414 697.866 346.251 695.667 346.647C677.019 350.006 586.182 364.303 403.446 361.694C221.571 359.098 128.446 340.897 108.658 336.552C106.293 336.033 104.727 333.852 104.964 331.442C107.729 303.299 117.992 288.825 132.969 271.18Z" fill="#FCE9C9" stroke="#321707" stroke-width="16" stroke-linejoin="round"/>
<path d="M298.585 404L366.031 452.209L286.277 491.563M552.123 404L489.6 448.765L552.123 484.676" stroke="#321707" stroke-width="16" stroke-linecap="round" stroke-linejoin="round"/>
<path d="M399.058 524.665C423.153 501.649 436.777 499.966 461.19 517.592" stroke="#321707" stroke-width="16" stroke-linecap="round" stroke-linejoin="round"/>
<mask id="path-15-outside-1_7_141" maskUnits="userSpaceOnUse" x="694.154" y="497.699" width="106" height="229" fill="black">
<rect fill="white" x="694.154" y="497.699" width="106" height="229"/>
<path fill-rule="evenodd" clip-rule="evenodd" d="M747.077 710.469C767.469 710.469 784 666.421 784 612.084C784 557.748 767.469 513.699 747.077 513.699C746.913 513.699 746.748 513.702 746.585 513.708V513.699H715.077V562.968C711.946 577.422 710.154 594.196 710.154 612.084C710.154 629.973 711.946 646.747 715.077 661.2V710.469H746.585V710.461C746.748 710.467 746.913 710.469 747.077 710.469Z"/>
</mask>
<path fill-rule="evenodd" clip-rule="evenodd" d="M747.077 710.469C767.469 710.469 784 666.421 784 612.084C784 557.748 767.469 513.699 747.077 513.699C746.913 513.699 746.748 513.702 746.585 513.708V513.699H715.077V562.968C711.946 577.422 710.154 594.196 710.154 612.084C710.154 629.973 711.946 646.747 715.077 661.2V710.469H746.585V710.461C746.748 710.467 746.913 710.469 747.077 710.469Z" fill="#5A5042"/>
<path d="M746.585 513.708H730.585C730.585 518.048 732.348 522.202 735.469 525.217C738.591 528.232 742.804 529.849 747.141 529.698L746.585 513.708ZM746.585 513.699H762.585C762.585 504.863 755.421 497.699 746.585 497.699V513.699ZM715.077 513.699V497.699C706.24 497.699 699.077 504.863 699.077 513.699H715.077ZM715.077 562.968L730.714 566.356C730.955 565.243 731.077 564.107 731.077 562.968H715.077ZM715.077 661.2H731.077C731.077 660.061 730.955 658.926 730.714 657.813L715.077 661.2ZM715.077 710.469H699.077C699.077 719.306 706.24 726.469 715.077 726.469V710.469ZM746.585 710.469V726.469C755.421 726.469 762.585 719.306 762.585 710.469H746.585ZM746.585 710.461L747.142 694.471C742.804 694.319 738.591 695.937 735.47 698.952C732.348 701.967 730.585 706.121 730.585 710.461H746.585ZM768 612.084C768 637.841 764.055 660.446 758.206 676.031C755.259 683.883 752.136 689.126 749.481 692.119C746.81 695.129 745.961 694.469 747.077 694.469V726.469C758.389 726.469 767.254 720.303 773.417 713.357C779.596 706.393 784.43 697.227 788.165 687.275C795.68 667.252 800 640.664 800 612.084H768ZM747.077 529.699C745.961 529.699 746.81 529.039 749.481 532.05C752.136 535.043 755.259 540.286 758.206 548.137C764.055 563.723 768 586.328 768 612.084H800C800 583.504 795.68 556.917 788.165 536.894C784.43 526.941 779.596 517.776 773.417 510.812C767.254 503.865 758.389 497.699 747.077 497.699V529.699ZM747.141 529.698C747.12 529.699 747.098 529.699 747.077 529.699V497.699C746.727 497.699 746.377 497.705 746.028 497.717L747.141 529.698ZM730.585 513.699V513.708H762.585V513.699H730.585ZM715.077 529.699H746.585V497.699H715.077V529.699ZM731.077 562.968V513.699H699.077V562.968H731.077ZM726.154 612.084C726.154 595.222 727.847 579.592 730.714 566.356L699.44 559.58C696.044 575.252 694.154 593.169 694.154 612.084H726.154ZM730.714 657.813C727.847 644.577 726.154 628.946 726.154 612.084H694.154C694.154 631 696.044 648.916 699.44 664.588L730.714 657.813ZM731.077 710.469V661.2H699.077V710.469H731.077ZM746.585 694.469H715.077V726.469H746.585V694.469ZM730.585 710.461V710.469H762.585V710.461H730.585ZM747.077 694.469C747.098 694.469 747.119 694.47 747.142 694.471L746.028 726.451C746.378 726.463 746.727 726.469 747.077 726.469V694.469Z" fill="#321707" mask="url(#path-15-outside-1_7_141)"/>
<path d="M709.661 718.469C717.866 718.469 724.727 714.01 730.018 708.047C735.316 702.076 739.722 693.891 743.26 684.464C750.358 665.55 754.585 639.959 754.585 612.084C754.585 584.21 750.358 558.618 743.26 539.705C739.722 530.277 735.316 522.093 730.018 516.121C724.727 510.159 717.866 505.699 709.661 505.699C701.457 505.699 694.596 510.159 689.305 516.121C684.007 522.093 679.601 530.277 676.063 539.705C668.965 558.618 664.738 584.21 664.738 612.084C664.738 639.959 668.965 665.55 676.063 684.464C679.601 693.891 684.007 702.076 689.305 708.047C694.596 714.01 701.457 718.469 709.661 718.469Z" fill="#433C31" stroke="#321707" stroke-width="16" stroke-linejoin="round"/>
<ellipse cx="708.677" cy="612.085" rx="15.2615" ry="32.4671" fill="#321707"/>
<rect x="88.769" y="598.214" width="625.415" height="32.6609" rx="9" fill="#726A5E" stroke="#321707" stroke-width="12" stroke-linejoin="round"/>
<mask id="path-20-outside-2_7_141" maskUnits="userSpaceOnUse" x="36.4309" y="497.699" width="106" height="229" fill="black">
<rect fill="white" x="36.4309" y="497.699" width="106" height="229"/>
<path fill-rule="evenodd" clip-rule="evenodd" d="M89.354 710.469C109.746 710.469 126.277 666.421 126.277 612.084C126.277 557.748 109.746 513.699 89.354 513.699C89.1896 513.699 89.0255 513.702 88.8616 513.708V513.699H57.3539V562.969C54.2226 577.422 52.4309 594.196 52.4309 612.084C52.4309 629.973 54.2226 646.746 57.3539 661.2V710.469H88.8616V710.461C89.0255 710.467 89.1896 710.469 89.354 710.469Z"/>
</mask>
<path fill-rule="evenodd" clip-rule="evenodd" d="M89.354 710.469C109.746 710.469 126.277 666.421 126.277 612.084C126.277 557.748 109.746 513.699 89.354 513.699C89.1896 513.699 89.0255 513.702 88.8616 513.708V513.699H57.3539V562.969C54.2226 577.422 52.4309 594.196 52.4309 612.084C52.4309 629.973 54.2226 646.746 57.3539 661.2V710.469H88.8616V710.461C89.0255 710.467 89.1896 710.469 89.354 710.469Z" fill="#5A5042"/>
<path d="M88.8616 513.708H72.8616C72.8616 518.048 74.6247 522.202 77.7465 525.217C80.8683 528.232 85.081 529.849 89.4185 529.698L88.8616 513.708ZM88.8616 513.699H104.862C104.862 504.863 97.6981 497.699 88.8616 497.699V513.699ZM57.3539 513.699V497.699C48.5173 497.699 41.3539 504.863 41.3539 513.699H57.3539ZM57.3539 562.969L72.9911 566.356C73.2323 565.243 73.3539 564.108 73.3539 562.969H57.3539ZM57.3539 661.2H73.3539C73.3539 660.061 73.2323 658.925 72.9911 657.812L57.3539 661.2ZM57.3539 710.469H41.3539C41.3539 719.306 48.5173 726.469 57.3539 726.469V710.469ZM88.8616 710.469V726.469C97.6981 726.469 104.862 719.306 104.862 710.469H88.8616ZM88.8616 710.461L89.4184 694.471C85.081 694.319 80.8683 695.937 77.7465 698.952C74.6247 701.967 72.8616 706.121 72.8616 710.461H88.8616ZM110.277 612.084C110.277 637.841 106.332 660.446 100.483 676.031C97.5361 683.883 94.4136 689.126 91.7581 692.119C89.0867 695.129 88.2381 694.469 89.354 694.469V726.469C100.666 726.469 109.531 720.303 115.694 713.357C121.873 706.393 126.707 697.227 130.442 687.275C137.957 667.252 142.277 640.664 142.277 612.084H110.277ZM89.354 529.699C88.2381 529.699 89.0867 529.039 91.7581 532.05C94.4136 535.043 97.5361 540.286 100.483 548.137C106.332 563.723 110.277 586.328 110.277 612.084H142.277C142.277 583.504 137.957 556.917 130.442 536.894C126.707 526.941 121.873 517.776 115.694 510.812C109.531 503.865 100.666 497.699 89.354 497.699V529.699ZM89.4185 529.698C89.3969 529.699 89.3754 529.699 89.354 529.699V497.699C89.0038 497.699 88.654 497.705 88.3047 497.717L89.4185 529.698ZM72.8616 513.699V513.708H104.862V513.699H72.8616ZM57.3539 529.699H88.8616V497.699H57.3539V529.699ZM73.3539 562.969V513.699H41.3539V562.969H73.3539ZM68.4309 612.084C68.4309 595.222 70.1237 579.592 72.9911 566.356L41.7166 559.581C38.3215 575.252 36.4309 593.169 36.4309 612.084H68.4309ZM72.9911 657.812C70.1237 644.576 68.4309 628.946 68.4309 612.084H36.4309C36.4309 630.999 38.3215 648.916 41.7166 664.588L72.9911 657.812ZM73.3539 710.469V661.2H41.3539V710.469H73.3539ZM88.8616 694.469H57.3539V726.469H88.8616V694.469ZM72.8616 710.461V710.469H104.862V710.461H72.8616ZM89.354 694.469C89.3758 694.469 89.3973 694.47 89.4184 694.471L88.3047 726.451C88.6536 726.463 89.0034 726.469 89.354 726.469V694.469Z" fill="#321707" mask="url(#path-20-outside-2_7_141)"/>
<path d="M52.9231 718.469C61.1281 718.469 67.9888 714.01 73.2792 708.047C78.5776 702.076 82.9836 693.891 86.5216 684.464C93.6196 665.55 97.8462 639.959 97.8462 612.084C97.8462 584.21 93.6196 558.618 86.5216 539.705C82.9836 530.277 78.5776 522.093 73.2792 516.121C67.9888 510.159 61.1281 505.699 52.9231 505.699C44.7181 505.699 37.8574 510.159 32.5669 516.121C27.2686 522.093 22.8626 530.277 19.3246 539.705C12.2265 558.618 8 584.21 8 612.084C8 639.959 12.2265 665.55 19.3246 684.464C22.8626 693.891 27.2686 702.076 32.5669 708.047C37.8574 714.01 44.7181 718.469 52.9231 718.469Z" fill="#433C31" stroke="#321707" stroke-width="16" stroke-linejoin="round"/>
<ellipse cx="50.9539" cy="612.085" rx="15.2615" ry="32.4671" fill="#321707"/>
<path d="M221.023 630.352C233.801 604.395 231.236 588.142 219.151 562.29C217.897 559.607 219.83 556.497 222.791 556.497H272.863C274.173 556.497 275.407 557.139 276.13 558.232C295.296 587.219 294.453 622.223 284.8 637.173C275.199 652.042 244.935 660.169 221.591 634.76C220.496 633.568 220.308 631.804 221.023 630.352Z" fill="url(#paint1_linear_7_141)"/>
<path d="M216.369 556.497C230.145 584.535 234.36 601.009 222.739 626.72C221.072 630.409 221.467 634.824 224.394 637.621C247.298 659.515 275.579 651.454 284.8 637.173C294.646 621.923 295.326 585.809 274.954 556.497" stroke="#321707" stroke-width="16" stroke-linecap="round" stroke-linejoin="round"/>
<path d="M537.103 634.787C550.33 608.92 552.96 598.814 541.161 573.191C540.037 570.75 541.512 567.869 544.165 567.44L588.037 560.343C589.556 560.097 591.091 560.745 591.936 562.032C610.812 590.793 608.997 622.285 599.385 637.173C589.785 652.041 560.929 664.376 537.657 639.186C536.558 637.997 536.366 636.229 537.103 634.787Z" fill="url(#paint2_linear_7_141)"/>
<path d="M538.831 568.303C552.597 596.322 551.295 606.428 538.917 631.201C537.108 634.823 537.524 639.259 540.475 642.031C563.207 663.385 590.169 651.446 599.385 637.173C609.231 621.923 610.895 589.252 590.523 559.94" stroke="#321707" stroke-width="16" stroke-linecap="round" stroke-linejoin="round"/>
<ellipse cx="228.5" cy="449.5" rx="3.5" ry="6.5" transform="rotate(-13.4753 228.5 449.5)" fill="#FCE9C9"/>
<defs>
<filter id="filter0_i_7_141" x="195.679" y="399" width="50.6411" height="75.6313" filterUnits="userSpaceOnUse" color-interpolation-filters="sRGB">
<feFlood flood-opacity="0" result="BackgroundImageFix"/>
<feBlend mode="normal" in="SourceGraphic" in2="BackgroundImageFix" result="shape"/>
<feColorMatrix in="SourceAlpha" type="matrix" values="0 0 0 0 0 0 0 0 0 0 0 0 0 0 0 0 0 0 127 0" result="hardAlpha"/>
<feOffset/>
<feGaussianBlur stdDeviation="6"/>
<feComposite in2="hardAlpha" operator="arithmetic" k2="-1" k3="1"/>
<feColorMatrix type="matrix" values="0 0 0 0 1 0 0 0 0 1 0 0 0 0 1 0 0 0 0.25 0"/>
<feBlend mode="normal" in2="shape" result="effect1_innerShadow_7_141"/>
</filter>
<radialGradient id="paint0_radial_7_141" cx="0" cy="0" r="1" gradientUnits="userSpaceOnUse" gradientTransform="translate(400 434.992) rotate(89.8922) scale(261.705 294.532)">
<stop stop-color="#FBE9CA"/>
<stop offset="1" stop-color="#DE1A00"/>
</radialGradient>
<linearGradient id="paint1_linear_7_141" x1="253.922" y1="556.497" x2="253.922" y2="651.146" gradientUnits="userSpaceOnUse">
<stop stop-color="#D94C1D" stop-opacity="0"/>
<stop offset="0.1" stop-color="#DC5024"/>
</linearGradient>
<linearGradient id="paint2_linear_7_141" x1="571.163" y1="559.94" x2="571.163" y2="653.66" gradientUnits="userSpaceOnUse">
<stop stop-color="#D94C1D" stop-opacity="0"/>
<stop offset="0.1" stop-color="#DC5024"/>
</linearGradient>
</defs>
</svg>
