<svg width="107" height="107" viewBox="0 0 107 107" fill="none" xmlns="http://www.w3.org/2000/svg">
<path d="M35.9214 102.078C38.5126 98.3549 39.0745 94.1996 37.5066 89.7628C37.3878 89.4268 37.6213 89.0632 37.9774 89.047L44.0027 88.7731C44.2232 88.7631 44.427 88.8951 44.5051 89.1016C46.7231 94.9705 45.5754 99.8947 40.9397 103.647C39.6577 104.685 38.1455 104.399 36.0232 102.789C35.8017 102.621 35.7625 102.306 35.9214 102.078Z" fill="#D94C1D"/>
<path d="M37.2493 89.0801C39.0287 93.5284 38.9063 98.1941 36.5835 102.032C36.2236 102.626 36.3094 103.424 36.901 103.789C38.6393 104.861 39.7895 104.579 40.9397 103.647C45.666 99.8213 46.7666 94.7775 44.3711 88.7563" stroke="#321707" stroke-width="2.07179" stroke-linecap="round" stroke-linejoin="round"/>
<path d="M46.004 104.684C46.004 105.971 43.4916 106.237 40.3923 106.237C37.2931 106.237 34.3627 105.777 34.3627 104.489C34.0045 101.77 37.2931 100.022 40.3923 100.022C43.4916 100.022 46.7019 101.252 46.004 104.684Z" fill="#321707"/>
<path d="M64.3533 101.946C66.6577 98.2429 64.9138 93.9703 62.7159 89.5171C62.5523 89.1856 62.7762 88.7931 63.145 88.7676L67.7581 88.4495C67.9129 88.4388 68.0662 88.4995 68.1712 88.6137C73.2512 94.1393 72.827 100.004 69.2115 103.166C69.1413 103.227 69.0545 103.267 68.9624 103.281C67.3136 103.533 66.0326 103.309 64.5844 102.733C64.2762 102.611 64.178 102.228 64.3533 101.946Z" fill="#D94C1D"/>
<path d="M62.3699 88.8211C64.5516 93.1846 66.4788 97.3953 64.8102 101.092C64.4691 101.848 64.7049 102.817 65.4993 103.054C66.5392 103.365 67.5503 103.468 68.7512 103.311C68.9822 103.281 69.199 103.181 69.3703 103.023C72.8769 99.7949 73.1829 93.9288 68.0026 88.4326" stroke="#321707" stroke-width="2.07179" stroke-linecap="round" stroke-linejoin="round"/>
<path d="M75.5128 104.36C75.5128 105.647 72.788 105.914 69.4269 105.914C66.0657 105.914 62.8878 105.453 62.8878 104.166C62.4993 101.446 66.0657 99.6982 69.4269 99.6982C72.788 99.6982 76.3545 100.54 75.5128 104.36Z" fill="#321707"/>
<path d="M94.0295 55.7371C94.0295 75.4354 76.0305 91.605 53.5648 91.605C31.099 91.605 13.1 75.4354 13.1 55.7371C13.1 36.0388 31.099 19.8691 53.5648 19.8691C76.0305 19.8691 94.0295 36.0388 94.0295 55.7371Z" fill="#D94C1D"/>
<path d="M94.0295 55.7371C94.0295 75.4354 76.0305 91.605 53.5648 91.605C31.099 91.605 13.1 75.4354 13.1 55.7371C13.1 36.0388 31.099 19.8691 53.5648 19.8691C76.0305 19.8691 94.0295 36.0388 94.0295 55.7371Z" fill="url(#paint0_radial_17_28)" fill-opacity="0.2"/>
<path d="M94.0295 55.7371C94.0295 75.4354 76.0305 91.605 53.5648 91.605C31.099 91.605 13.1 75.4354 13.1 55.7371C13.1 36.0388 31.099 19.8691 53.5648 19.8691C76.0305 19.8691 94.0295 36.0388 94.0295 55.7371Z" stroke="#321707" stroke-width="2.07179"/>
<path d="M77.0667 33.0769C76.7296 33.5806 75.7507 32.8278 74.8654 32.2353C73.98 31.6428 73.4863 31.1704 73.8234 30.6667C74.1605 30.163 75.1515 30.235 76.0369 30.8275C76.9222 31.42 77.4037 32.5732 77.0667 33.0769Z" fill="#E86227"/>
<path d="M50.1981 19.3707C41.9109 5.77457 29.4154 11.1483 27.4731 14.3207C34.8539 15.5509 36.9904 22.4784 46.7019 21.572C37.7026 23.1259 38.6737 30.3124 38.6737 30.3124C38.6737 30.3124 49.4859 30.3124 54.2769 24.4855C59.3269 29.0823 63.4705 29.9887 68.9737 30.3124C68.9737 22.5431 61.5282 21.572 61.5282 21.572C68.9737 21.572 72.4699 15.3566 77.3256 14.9034C74.8654 11.6662 64.7654 6.22778 56.025 19.3707C59.4564 -0.0523767 45.3423 -0.376079 44.6949 4.93289C47.0904 7.71686 51.8814 13.2848 50.1981 19.3707Z" fill="#7F8A20" stroke="#321707" stroke-width="2.07179" stroke-linejoin="round"/>
<path d="M18.386 36.6339C18.5218 36.4737 18.7155 36.3892 18.9247 36.4079C21.6335 36.6499 40.8683 38.3304 53.9532 38.4507C66.8731 38.5695 86.0768 37.1173 88.6305 36.9191C88.8163 36.9047 88.992 36.9706 89.1224 37.1037C91.1988 39.2235 92.9488 42.5788 92.8857 45.9903C92.8803 46.2796 92.676 46.5174 92.3913 46.5688C89.957 47.0082 78.0112 48.8944 53.9532 48.5507C30.0063 48.2086 17.7587 45.8078 15.1763 45.2396C14.8701 45.1723 14.6683 44.8901 14.6987 44.5781C15.0613 40.8661 16.4129 38.9598 18.386 36.6339Z" fill="#FCE9C9" stroke="#321707" stroke-width="2.07179" stroke-linejoin="round"/>
<path d="M40.1628 54.1187L49.0327 60.4635L38.5442 65.643M73.5058 54.1187L65.2833 60.0103L73.5058 64.7366" stroke="#321707" stroke-width="2.07179" stroke-linecap="round" stroke-linejoin="round"/>
<path d="M53.3761 69.9997C56.5449 66.9705 58.3366 66.7491 61.5471 69.0689" stroke="#321707" stroke-width="2.07179" stroke-linecap="round" stroke-linejoin="round"/>
<mask id="path-13-outside-1_17_28" maskUnits="userSpaceOnUse" x="91.2885" y="65.5566" width="15" height="31" fill="black">
<rect fill="white" x="91.2885" y="65.5566" width="15" height="31"/>
<path fill-rule="evenodd" clip-rule="evenodd" d="M99.0794 68.5566H94.9358V75.0414C94.5241 76.9436 94.2885 79.1511 94.2885 81.5054C94.2885 83.8596 94.5241 86.0671 94.9358 87.9694V94.4541H99.0794V94.453C99.101 94.4537 99.1226 94.4541 99.1442 94.4541C101.826 94.4541 104 88.6567 104 81.5054C104 74.354 101.826 68.5566 99.1442 68.5566C99.1226 68.5566 99.101 68.557 99.0794 68.5578V68.5566Z"/>
</mask>
<path fill-rule="evenodd" clip-rule="evenodd" d="M99.0794 68.5566H94.9358V75.0414C94.5241 76.9436 94.2885 79.1511 94.2885 81.5054C94.2885 83.8596 94.5241 86.0671 94.9358 87.9694V94.4541H99.0794V94.453C99.101 94.4537 99.1226 94.4541 99.1442 94.4541C101.826 94.4541 104 88.6567 104 81.5054C104 74.354 101.826 68.5566 99.1442 68.5566C99.1226 68.5566 99.101 68.557 99.0794 68.5578V68.5566Z" fill="#5A5042"/>
<path d="M94.9358 68.5566V66.4848C93.7916 66.4848 92.864 67.4124 92.864 68.5566H94.9358ZM99.0794 68.5566H101.151C101.151 67.4124 100.224 66.4848 99.0794 66.4848V68.5566ZM94.9358 75.0414L96.9607 75.4797C96.9919 75.3357 97.0076 75.1887 97.0076 75.0414H94.9358ZM94.9358 87.9694H97.0076C97.0076 87.822 96.9919 87.6751 96.9607 87.5311L94.9358 87.9694ZM94.9358 94.4541H92.864C92.864 95.5983 93.7916 96.5259 94.9358 96.5259V94.4541ZM99.0794 94.4541V96.5259C100.224 96.5259 101.151 95.5983 101.151 94.4541H99.0794ZM99.0794 94.453L99.1516 92.3824C98.5899 92.3628 98.0444 92.5723 97.6402 92.9627C97.2359 93.3531 97.0076 93.891 97.0076 94.453H99.0794ZM99.0794 68.5578H97.0076C97.0076 69.1198 97.2359 69.6577 97.6402 70.0481C98.0445 70.4385 98.59 70.6479 99.1516 70.6283L99.0794 68.5578ZM94.9358 70.6284H99.0794V66.4848H94.9358V70.6284ZM97.0076 75.0414V68.5566H92.864V75.0414H97.0076ZM96.3603 81.5054C96.3603 79.2839 96.5831 77.2244 96.9607 75.4797L92.9109 74.603C92.4651 76.6629 92.2167 79.0183 92.2167 81.5054H96.3603ZM96.9607 87.5311C96.5831 85.7864 96.3603 83.7268 96.3603 81.5054H92.2167C92.2167 83.9924 92.4651 86.3479 92.9109 88.4077L96.9607 87.5311ZM97.0076 94.4541V87.9694H92.864V94.4541H97.0076ZM99.0794 92.3823H94.9358V96.5259H99.0794V92.3823ZM97.0076 94.453V94.4541H101.151V94.453H97.0076ZM99.1442 92.3823C99.1467 92.3823 99.1492 92.3823 99.1516 92.3824L99.0073 96.5235C99.0528 96.5251 99.0985 96.5259 99.1442 96.5259V92.3823ZM101.928 81.5054C101.928 84.8984 101.409 87.8779 100.638 89.934C100.25 90.9697 99.837 91.664 99.4841 92.0621C99.129 92.4626 99.0094 92.3823 99.1442 92.3823V96.5259C100.62 96.5259 101.778 95.7209 102.585 94.811C103.393 93.8986 104.027 92.6965 104.518 91.3889C105.504 88.7586 106.072 85.2637 106.072 81.5054H101.928ZM99.1442 70.6284C99.0094 70.6284 99.129 70.5482 99.4841 70.9487C99.837 71.3467 100.25 72.041 100.638 73.0767C101.409 75.1328 101.928 78.1123 101.928 81.5054H106.072C106.072 77.747 105.504 74.2522 104.518 71.6218C104.027 70.3142 103.393 69.1122 102.585 68.1998C101.778 67.2898 100.62 66.4849 99.1442 66.4849V70.6284ZM99.1516 70.6283C99.1492 70.6284 99.1467 70.6284 99.1442 70.6284V66.4849C99.0985 66.4849 99.0528 66.4857 99.0072 66.4872L99.1516 70.6283ZM97.0076 68.5566V68.5578H101.151V68.5566H97.0076Z" fill="#321707" mask="url(#path-13-outside-1_17_28)"/>
<path d="M94.2237 95.49C95.2968 95.49 96.1951 94.9063 96.8889 94.1237C97.5839 93.3399 98.1624 92.2648 98.6272 91.0252C99.5598 88.5384 100.115 85.1724 100.115 81.5054C100.115 77.8383 99.5598 74.4723 98.6272 71.9855C98.1624 70.7459 97.5839 69.6708 96.8889 68.887C96.1951 68.1044 95.2968 67.5207 94.2237 67.5207C93.1507 67.5207 92.2524 68.1044 91.5585 68.887C90.8636 69.6708 90.2851 70.7459 89.8202 71.9855C88.8877 74.4723 88.3321 77.8383 88.3321 81.5054C88.3321 85.1724 88.8877 88.5384 89.8202 91.0252C90.2851 92.2648 90.8636 93.3399 91.5585 94.1237C92.2524 94.9063 93.1507 95.49 94.2237 95.49Z" fill="#433C31" stroke="#321707" stroke-width="2.07179" stroke-linejoin="round"/>
<ellipse cx="94.0942" cy="81.5053" rx="2.00705" ry="4.27308" fill="#321707"/>
<rect x="12.5821" y="79.6923" width="82.2244" height="4.27308" rx="1.16538" fill="#726A5E" stroke="#321707" stroke-width="1.55385" stroke-linejoin="round"/>
<mask id="path-18-outside-2_17_28" maskUnits="userSpaceOnUse" x="4.79103" y="65.5566" width="15" height="31" fill="black">
<rect fill="white" x="4.79103" y="65.5566" width="15" height="31"/>
<path fill-rule="evenodd" clip-rule="evenodd" d="M12.582 68.5566H8.43846V75.0411C8.02666 76.9434 7.79103 79.151 7.79103 81.5054C7.79103 83.8597 8.02666 86.0673 8.43846 87.9696V94.4541H12.582V94.453C12.6036 94.4537 12.6252 94.4541 12.6468 94.4541C15.3286 94.4541 17.5026 88.6567 17.5026 81.5054C17.5026 74.354 15.3286 68.5566 12.6468 68.5566C12.6252 68.5566 12.6036 68.557 12.582 68.5578V68.5566Z"/>
</mask>
<path fill-rule="evenodd" clip-rule="evenodd" d="M12.582 68.5566H8.43846V75.0411C8.02666 76.9434 7.79103 79.151 7.79103 81.5054C7.79103 83.8597 8.02666 86.0673 8.43846 87.9696V94.4541H12.582V94.453C12.6036 94.4537 12.6252 94.4541 12.6468 94.4541C15.3286 94.4541 17.5026 88.6567 17.5026 81.5054C17.5026 74.354 15.3286 68.5566 12.6468 68.5566C12.6252 68.5566 12.6036 68.557 12.582 68.5578V68.5566Z" fill="#5A5042"/>
<path d="M8.43846 68.5566V66.4848C7.29424 66.4848 6.36666 67.4124 6.36666 68.5566H8.43846ZM12.582 68.5566H14.6538C14.6538 67.4124 13.7263 66.4848 12.582 66.4848V68.5566ZM8.43846 75.0411L10.4633 75.4795C10.4945 75.3354 10.5103 75.1885 10.5103 75.0411H8.43846ZM8.43846 87.9696H10.5103C10.5103 87.8223 10.4945 87.6753 10.4633 87.5313L8.43846 87.9696ZM8.43846 94.4541H6.36666C6.36666 95.5983 7.29424 96.5259 8.43846 96.5259V94.4541ZM12.582 94.4541V96.5259C13.7263 96.5259 14.6538 95.5983 14.6538 94.4541H12.582ZM12.582 94.453L12.6542 92.3824C12.0926 92.3628 11.5471 92.5723 11.1428 92.9627C10.7386 93.3531 10.5103 93.891 10.5103 94.453H12.582ZM12.582 68.5578H10.5103C10.5103 69.1198 10.7386 69.6576 11.1428 70.0481C11.5471 70.4385 12.0926 70.6479 12.6542 70.6283L12.582 68.5578ZM8.43846 70.6284H12.582V66.4848H8.43846V70.6284ZM10.5103 75.0411V68.5566H6.36666V75.0411H10.5103ZM9.86283 81.5054C9.86283 79.2838 10.0857 77.2242 10.4633 75.4795L6.41356 74.6028C5.96765 76.6627 5.71924 79.0182 5.71924 81.5054H9.86283ZM10.4633 87.5313C10.0857 85.7866 9.86283 83.7269 9.86283 81.5054H5.71924C5.71924 83.9925 5.96765 86.3481 6.41356 88.408L10.4633 87.5313ZM10.5103 94.4541V87.9696H6.36666V94.4541H10.5103ZM12.582 92.3823H8.43846V96.5259H12.582V92.3823ZM10.5103 94.453V94.4541H14.6538V94.453H10.5103ZM12.6468 92.3823C12.6492 92.3823 12.6517 92.3823 12.6542 92.3824L12.5098 96.5235C12.5555 96.5251 12.6012 96.5259 12.6468 96.5259V92.3823ZM15.4308 81.5054C15.4308 84.8984 14.9115 87.8779 14.1405 89.934C13.7521 90.9697 13.3396 91.664 12.9866 92.0621C12.6316 92.4626 12.512 92.3823 12.6468 92.3823V96.5259C14.1225 96.5259 15.2803 95.7209 16.0871 94.811C16.8961 93.8986 17.5299 92.6965 18.0202 91.3889C19.0066 88.7586 19.5744 85.2637 19.5744 81.5054H15.4308ZM12.6468 70.6284C12.512 70.6284 12.6316 70.5482 12.9866 70.9487C13.3396 71.3467 13.7521 72.041 14.1405 73.0767C14.9115 75.1328 15.4308 78.1123 15.4308 81.5054H19.5744C19.5744 77.747 19.0066 74.2522 18.0202 71.6218C17.5299 70.3142 16.8961 69.1122 16.0871 68.1998C15.2803 67.2898 14.1225 66.4849 12.6468 66.4849V70.6284ZM12.6542 70.6283C12.6517 70.6284 12.6493 70.6284 12.6468 70.6284V66.4849C12.6011 66.4849 12.5555 66.4857 12.5099 66.4872L12.6542 70.6283ZM10.5103 68.5566V68.5578H14.6538V68.5566H10.5103Z" fill="#321707" mask="url(#path-18-outside-2_17_28)"/>
<path d="M7.85577 95.49C8.92884 95.49 9.82711 94.9063 10.521 94.1237C11.2159 93.3399 11.7944 92.2648 12.2593 91.0252C13.1918 88.5384 13.7474 85.1724 13.7474 81.5054C13.7474 77.8383 13.1918 74.4723 12.2593 71.9855C11.7944 70.7459 11.2159 69.6708 10.521 68.887C9.82711 68.1044 8.92884 67.5207 7.85577 67.5207C6.78269 67.5207 5.88443 68.1044 5.19056 68.887C4.49563 69.6708 3.91713 70.7459 3.45228 71.9855C2.51972 74.4723 1.9641 77.8383 1.9641 81.5054C1.9641 85.1724 2.51972 88.5384 3.45228 91.0252C3.91713 92.2648 4.49563 93.3399 5.19056 94.1237C5.88443 94.9063 6.78269 95.49 7.85577 95.49Z" fill="#433C31" stroke="#321707" stroke-width="2.07179" stroke-linejoin="round"/>
<ellipse cx="7.5968" cy="81.5053" rx="2.00705" ry="4.27308" fill="#321707"/>
<path d="M29.9601 83.9146C31.6456 80.4911 31.3057 78.3505 29.7105 74.939C29.5482 74.5917 29.7985 74.1892 30.1819 74.1892H36.7842C36.9539 74.1892 37.1138 74.2724 37.2074 74.4139C39.7303 78.2298 39.6198 82.8389 38.35 84.8072C37.0868 86.765 33.104 87.8346 30.0335 84.4854C29.8919 84.3309 29.8675 84.1026 29.9601 83.9146Z" fill="url(#paint1_linear_17_28)"/>
<path d="M29.3506 74.1892C31.1647 77.8842 31.718 80.0534 30.1822 83.445C29.9661 83.9222 30.0174 84.4931 30.3953 84.8559C33.4093 87.7502 37.1359 86.689 38.35 84.8072C39.6448 82.8001 39.7342 78.047 37.0551 74.1892" stroke="#321707" stroke-width="2.07179" stroke-linecap="round" stroke-linejoin="round"/>
<path d="M71.5279 84.4983C73.2714 81.0864 73.6174 79.7575 72.0593 76.3758C71.9138 76.0598 72.1046 75.6868 72.4481 75.6312L78.2337 74.6945C78.4305 74.6626 78.6294 74.7466 78.7388 74.9133C81.2241 78.6998 80.9858 82.8469 79.7212 84.8071C78.4582 86.7648 74.6607 88.3887 71.5994 85.0679C71.4574 84.9138 71.4325 84.6849 71.5279 84.4983Z" fill="url(#paint2_linear_17_28)"/>
<path d="M71.7577 75.743C73.5706 79.4356 73.3964 80.7642 71.7624 84.0345C71.5283 84.5031 71.5822 85.0767 71.9631 85.4363C74.9549 88.2607 78.5077 86.6879 79.7212 84.8071C81.016 82.8 81.2349 78.5002 78.5558 74.6423" stroke="#321707" stroke-width="2.07179" stroke-linecap="round" stroke-linejoin="round"/>
<defs>
<radialGradient id="paint0_radial_17_28" cx="0" cy="0" r="1" gradientUnits="userSpaceOnUse" gradientTransform="translate(53.5 58.1973) rotate(89.8923) scale(34.4436 38.734)">
<stop stop-color="#FBE9CA"/>
<stop offset="1" stop-color="#DE1A00"/>
</radialGradient>
<linearGradient id="paint1_linear_17_28" x1="34.2892" y1="74.1892" x2="34.2892" y2="86.6462" gradientUnits="userSpaceOnUse">
<stop stop-color="#D94C1D" stop-opacity="0"/>
<stop offset="0.1" stop-color="#DC5024"/>
</linearGradient>
<linearGradient id="paint2_linear_17_28" x1="76.0098" y1="74.6423" x2="76.0098" y2="86.9771" gradientUnits="userSpaceOnUse">
<stop stop-color="#D94C1D" stop-opacity="0"/>
<stop offset="0.1" stop-color="#DC5024"/>
</linearGradient>
</defs>
</svg>
