<svg width="82" height="81" viewBox="0 0 82 81" fill="none" xmlns="http://www.w3.org/2000/svg">
<g id="vector-pomodoro">
<g id="tomato">
<g id="leg-1">
<path id="leg-1_2" d="M27.8426 77.2686C29.6998 74.5411 30.1168 71.5082 29.0241 68.2737C28.91 67.936 29.1438 67.5731 29.4998 67.5569L33.7623 67.3632C33.9828 67.3532 34.1866 67.4844 34.2634 67.6913C35.8893 72.07 35.0145 75.7459 31.5487 78.5516C30.6041 79.3163 29.4933 79.1257 27.9479 77.9799C27.7246 77.8143 27.6861 77.4985 27.8426 77.2686Z" fill="#D94C1D"/>
<path id="leg-1-stroke" d="M28.7718 67.59C30.0699 70.8352 30.0229 74.2341 28.4261 77.0699C28.0851 77.6756 28.1637 78.4844 28.7767 78.812C29.9383 79.4328 30.7435 79.2034 31.5487 78.5516C35.1051 75.6726 35.9333 71.8772 34.1308 67.3464" stroke="#321707" stroke-width="2.07179" stroke-linecap="round" stroke-linejoin="round"/>
<path id="foot-1" d="M35.3595 79.3309C35.3595 80.2996 33.4689 80.5002 31.1368 80.5002C28.8047 80.5002 26.5997 80.1534 26.5997 79.1848C26.3301 77.1386 28.8047 75.8232 31.1368 75.8232C33.4689 75.8232 35.8846 76.7489 35.3595 79.3309Z" fill="#321707"/>
</g>
<g id="leg-2">
<path id="leg-2_2" d="M49.2491 77.1346C50.8299 74.4276 49.606 71.3249 48.0195 68.0907C47.8568 67.7588 48.0807 67.3666 48.4494 67.3411L51.6684 67.1192C51.8231 67.1085 51.9763 67.1688 52.0808 67.2835C55.8476 71.4146 55.5354 75.7896 52.849 78.1654C52.7792 78.2271 52.6925 78.2672 52.6004 78.2808C51.433 78.4532 50.5093 78.3072 49.4898 77.9212C49.1796 77.8038 49.0819 77.421 49.2491 77.1346Z" fill="#D94C1D"/>
<path id="leg-2-stroke" d="M47.6744 67.3946C49.2437 70.5332 50.638 73.5669 49.6612 76.258C49.3783 77.0374 49.6081 78.02 50.4157 78.2076C51.0415 78.3529 51.6707 78.3932 52.3885 78.3089C52.6198 78.2818 52.8372 78.1816 53.0063 78.0215C55.5841 75.58 55.779 71.2042 51.9128 67.1023" stroke="#321707" stroke-width="2.07179" stroke-linecap="round" stroke-linejoin="round"/>
<path id="foot-2" d="M57.5641 79.0873C57.5641 80.0559 55.5138 80.2565 52.9846 80.2565C50.4554 80.2565 48.0641 79.9098 48.0641 78.9411C47.7718 76.895 50.4554 75.5796 52.9846 75.5796C55.5138 75.5796 58.1974 76.2129 57.5641 79.0873Z" fill="#321707"/>
</g>
<g id="body">
<g id="body_2">
<path d="M71.241 42.4999C71.241 57.1534 57.8411 69.2333 41.0487 69.2333C24.2563 69.2333 10.8564 57.1534 10.8564 42.4999C10.8564 27.8465 24.2563 15.7666 41.0487 15.7666C57.8411 15.7666 71.241 27.8465 71.241 42.4999Z" fill="#D94C1D"/>
<path d="M71.241 42.4999C71.241 57.1534 57.8411 69.2333 41.0487 69.2333C24.2563 69.2333 10.8564 57.1534 10.8564 42.4999C10.8564 27.8465 24.2563 15.7666 41.0487 15.7666C57.8411 15.7666 71.241 27.8465 71.241 42.4999Z" fill="url(#paint0_radial_29_86)" fill-opacity="0.2"/>
<path d="M71.241 42.4999C71.241 57.1534 57.8411 69.2333 41.0487 69.2333C24.2563 69.2333 10.8564 57.1534 10.8564 42.4999C10.8564 27.8465 24.2563 15.7666 41.0487 15.7666C57.8411 15.7666 71.241 27.8465 71.241 42.4999Z" stroke="#321707" stroke-width="2.07179"/>
</g>
<path id="shine" d="M58.7333 25.4487C58.4797 25.8277 57.7431 25.2612 57.0769 24.8153C56.4107 24.3695 56.0392 24.014 56.2929 23.635C56.5465 23.256 57.2922 23.3102 57.9584 23.756C58.6246 24.2019 58.987 25.0696 58.7333 25.4487Z" fill="#E86227"/>
</g>
<path id="leaf" d="M38.5154 15.1352C32.2795 4.90448 22.8769 8.94807 21.4154 11.3353C26.9692 12.2609 28.5769 17.4737 35.8846 16.7917C29.1128 17.9609 29.8436 23.3686 29.8436 23.3686C29.8436 23.3686 37.9795 23.3686 41.5846 18.984C45.3846 22.4429 48.5026 23.125 52.6436 23.3686C52.6436 17.5224 47.041 16.7917 47.041 16.7917C52.6436 16.7917 55.2744 12.1147 58.9282 11.7737C57.0769 9.33782 49.4769 5.24551 42.9 15.1352C45.4821 0.519846 34.8616 0.276269 34.3744 4.27114C36.1769 6.36601 39.7821 10.5557 38.5154 15.1352Z" fill="#7F8A20" stroke="#321707" stroke-width="2.07179" stroke-linejoin="round"/>
<path id="bandage" d="M14.5238 28.1887C14.6594 28.0283 14.8562 27.9439 15.0654 27.9625C17.3833 28.1687 31.6184 29.4029 41.341 29.4923C50.9558 29.5807 65.1954 28.5129 67.3668 28.3451C67.5526 28.3308 67.726 28.3964 67.8554 28.5306C69.3712 30.1028 70.6428 32.5471 70.638 35.0447C70.6374 35.3341 70.43 35.5722 70.145 35.6224C68.0663 35.9883 59.0786 37.3457 41.341 37.0923C23.6905 36.8402 14.4866 35.1017 12.2909 34.6288C11.9844 34.5628 11.7831 34.2819 11.8167 33.9703C12.1049 31.2973 13.0919 29.8825 14.5238 28.1887Z" fill="#FCE9C9" stroke="#321707" stroke-width="2.07179" stroke-linejoin="round"/>
<g id="face">
<path id="eyes" d="M30.9641 41.282L37.6385 46.0563L29.7462 49.9538M56.0538 41.282L49.8667 45.7153L56.0538 49.2717" stroke="#321707" stroke-width="2.07179" stroke-linecap="round" stroke-linejoin="round"/>
<path id="mouth" d="M40.9067 53.2321C43.2912 50.9527 44.6394 50.7861 47.0552 52.5316" stroke="#321707" stroke-width="2.07179" stroke-linecap="round" stroke-linejoin="round"/>
</g>
<g id="weight-full">
<g id="weight-r">
<g id="Union">
<mask id="path-13-outside-1_29_86" maskUnits="userSpaceOnUse" x="68.6923" y="49.1462" width="13" height="25" fill="black">
<rect fill="white" x="68.6923" y="49.1462" width="13" height="25"/>
<path fill-rule="evenodd" clip-rule="evenodd" d="M75.3462 71.6334C77.3641 71.6334 79 67.2711 79 61.8898C79 56.5086 77.3641 52.1462 75.3462 52.1462C75.3299 52.1462 75.3136 52.1465 75.2974 52.1471V52.1463H72.1794V57.0258C71.8696 58.4572 71.6923 60.1183 71.6923 61.8898C71.6923 63.6613 71.8696 65.3224 72.1794 66.7538V71.6334H75.2974V71.6326C75.3136 71.6331 75.3299 71.6334 75.3462 71.6334Z"/>
</mask>
<path fill-rule="evenodd" clip-rule="evenodd" d="M75.3462 71.6334C77.3641 71.6334 79 67.2711 79 61.8898C79 56.5086 77.3641 52.1462 75.3462 52.1462C75.3299 52.1462 75.3136 52.1465 75.2974 52.1471V52.1463H72.1794V57.0258C71.8696 58.4572 71.6923 60.1183 71.6923 61.8898C71.6923 63.6613 71.8696 65.3224 72.1794 66.7538V71.6334H75.2974V71.6326C75.3136 71.6331 75.3299 71.6334 75.3462 71.6334Z" fill="#5A5042"/>
<path d="M75.2974 52.1471H73.2256C73.2256 52.7091 73.4539 53.247 73.8582 53.6374C74.2624 54.0278 74.808 54.2372 75.3696 54.2176L75.2974 52.1471ZM75.2974 52.1463H77.3692C77.3692 51.002 76.4416 50.0745 75.2974 50.0745V52.1463ZM72.1794 52.1463V50.0745C71.0352 50.0745 70.1076 51.002 70.1076 52.1463H72.1794ZM72.1794 57.0258L74.2043 57.4641C74.2355 57.3201 74.2512 57.1732 74.2512 57.0258H72.1794ZM72.1794 66.7538H74.2512C74.2512 66.6065 74.2355 66.4595 74.2043 66.3155L72.1794 66.7538ZM72.1794 71.6334H70.1076C70.1076 72.7776 71.0352 73.7052 72.1794 73.7052V71.6334ZM75.2974 71.6334V73.7052C76.4416 73.7052 77.3692 72.7776 77.3692 71.6334H75.2974ZM75.2974 71.6326L75.3697 69.562C74.808 69.5424 74.2625 69.7518 73.8582 70.1423C73.4539 70.5327 73.2256 71.0706 73.2256 71.6326H75.2974ZM76.9282 61.8898C76.9282 64.3978 76.5435 66.576 75.9899 68.0521C75.7103 68.7978 75.4273 69.2574 75.2182 69.4933C75.0069 69.7316 75.0454 69.5616 75.3462 69.5616V73.7052C76.6559 73.7052 77.6556 72.99 78.3186 72.2422C78.9838 71.492 79.4881 70.5246 79.8697 69.507C80.6386 67.4567 81.0718 64.7631 81.0718 61.8898H76.9282ZM75.3462 54.218C75.0454 54.218 75.0069 54.0481 75.2182 54.2864C75.4273 54.5223 75.7103 54.9818 75.9899 55.7275C76.5435 57.2036 76.9282 59.3819 76.9282 61.8898H81.0718C81.0718 59.0165 80.6386 56.323 79.8697 54.2726C79.4881 53.2551 78.9838 52.2877 78.3186 51.5375C77.6556 50.7897 76.6559 50.0744 75.3462 50.0744V54.218ZM75.3696 54.2176C75.3618 54.2179 75.354 54.218 75.3462 54.218V50.0744C75.3058 50.0744 75.2654 50.0751 75.2252 50.0766L75.3696 54.2176ZM73.2256 52.1463V52.1471H77.3692V52.1463H73.2256ZM72.1794 54.218H75.2974V50.0745H72.1794V54.218ZM74.2512 57.0258V52.1463H70.1076V57.0258H74.2512ZM73.7641 61.8898C73.7641 60.2511 73.9286 58.738 74.2043 57.4641L70.1545 56.5875C69.8106 58.1765 69.6205 59.9855 69.6205 61.8898H73.7641ZM74.2043 66.3155C73.9286 65.0417 73.7641 63.5285 73.7641 61.8898H69.6205C69.6205 63.7942 69.8106 65.6032 70.1545 67.1921L74.2043 66.3155ZM74.2512 71.6334V66.7538H70.1076V71.6334H74.2512ZM75.2974 69.5616H72.1794V73.7052H75.2974V69.5616ZM73.2256 71.6326V71.6334H77.3692V71.6326H73.2256ZM75.3462 69.5616C75.354 69.5616 75.3618 69.5618 75.3697 69.562L75.2251 73.7031C75.2654 73.7045 75.3058 73.7052 75.3462 73.7052V69.5616Z" fill="#321707" mask="url(#path-13-outside-1_29_86)"/>
</g>
<path id="Ellipse 4" d="M71.6436 72.6693C72.5507 72.6693 73.2909 72.1754 73.841 71.5549C74.3921 70.9333 74.8411 70.0929 75.1972 69.1433C75.9123 67.2365 76.3333 64.6718 76.3333 61.8898C76.3333 59.1079 75.9123 56.5432 75.1972 54.6363C74.8411 53.6868 74.3921 52.8463 73.841 52.2247C73.2909 51.6043 72.5507 51.1103 71.6436 51.1103C70.7365 51.1103 69.9963 51.6043 69.4462 52.2247C68.8951 52.8463 68.4461 53.6868 68.09 54.6363C67.3749 56.5432 66.9539 59.1079 66.9539 61.8898C66.9539 64.6718 67.3749 67.2365 68.09 69.1433C68.4461 70.0929 68.8951 70.9333 69.4462 71.5549C69.9963 72.1754 70.7365 72.6693 71.6436 72.6693Z" fill="#433C31" stroke="#321707" stroke-width="2.07179" stroke-linejoin="round"/>
<ellipse id="Ellipse 5" cx="71.5461" cy="61.8899" rx="1.51026" ry="3.21538" fill="#321707"/>
</g>
<rect id="stick" x="10.018" y="60.3332" width="62.2564" height="3.6" rx="1.16538" fill="#726A5E" stroke="#321707" stroke-width="1.55385" stroke-linejoin="round"/>
<g id="weight-l">
<g id="Union_2">
<mask id="path-18-outside-2_29_86" maskUnits="userSpaceOnUse" x="3.60513" y="49.1462" width="13" height="25" fill="black">
<rect fill="white" x="3.60513" y="49.1462" width="13" height="25"/>
<path fill-rule="evenodd" clip-rule="evenodd" d="M10.259 71.6334C12.2769 71.6334 13.9128 67.2711 13.9128 61.8898C13.9128 56.5086 12.2769 52.1462 10.259 52.1462C10.2427 52.1462 10.2265 52.1465 10.2103 52.1471V52.1463H7.09231V57.0256C6.78244 58.457 6.60513 60.1182 6.60513 61.8898C6.60513 63.6614 6.78244 65.3226 7.09231 66.7541V71.6334H10.2103V71.6326C10.2265 71.6331 10.2427 71.6334 10.259 71.6334Z"/>
</mask>
<path fill-rule="evenodd" clip-rule="evenodd" d="M10.259 71.6334C12.2769 71.6334 13.9128 67.2711 13.9128 61.8898C13.9128 56.5086 12.2769 52.1462 10.259 52.1462C10.2427 52.1462 10.2265 52.1465 10.2103 52.1471V52.1463H7.09231V57.0256C6.78244 58.457 6.60513 60.1182 6.60513 61.8898C6.60513 63.6614 6.78244 65.3226 7.09231 66.7541V71.6334H10.2103V71.6326C10.2265 71.6331 10.2427 71.6334 10.259 71.6334Z" fill="#5A5042"/>
<path d="M10.2103 52.1471H8.13847C8.13847 52.7091 8.36677 53.247 8.77102 53.6374C9.17526 54.0278 9.72077 54.2372 10.2824 54.2176L10.2103 52.1471ZM10.2103 52.1463H12.2821C12.2821 51.002 11.3545 50.0745 10.2103 50.0745V52.1463ZM7.09231 52.1463V50.0745C5.94809 50.0745 5.02052 51.002 5.02052 52.1463H7.09231ZM7.09231 57.0256L9.1172 57.4639C9.14838 57.3199 9.16411 57.173 9.16411 57.0256H7.09231ZM7.09231 66.7541H9.16411C9.16411 66.6067 9.14838 66.4597 9.1172 66.3157L7.09231 66.7541ZM7.09231 71.6334H5.02052C5.02052 72.7776 5.94809 73.7052 7.09231 73.7052V71.6334ZM10.2103 71.6334V73.7052C11.3545 73.7052 12.2821 72.7776 12.2821 71.6334H10.2103ZM10.2103 71.6326L10.2824 69.562C9.72072 69.5425 9.17523 69.7519 8.771 70.1423C8.36676 70.5327 8.13847 71.0706 8.13847 71.6326H10.2103ZM11.841 61.8898C11.841 64.3978 11.4563 66.576 10.9028 68.0521C10.6231 68.7978 10.3401 69.2574 10.131 69.4933C9.9197 69.7316 9.9582 69.5616 10.259 69.5616V73.7052C11.5687 73.7052 12.5685 72.99 13.2315 72.2422C13.8966 71.492 14.4009 70.5246 14.7825 69.507C15.5514 67.4567 15.9846 64.7631 15.9846 61.8898H11.841ZM10.259 54.218C9.9582 54.218 9.9197 54.0481 10.131 54.2864C10.3401 54.5223 10.6231 54.9818 10.9028 55.7275C11.4563 57.2036 11.841 59.3819 11.841 61.8898H15.9846C15.9846 59.0165 15.5514 56.323 14.7825 54.2726C14.4009 53.2551 13.8966 52.2877 13.2315 51.5375C12.5685 50.7897 11.5687 50.0744 10.259 50.0744V54.218ZM10.2824 54.2176C10.2746 54.2179 10.2668 54.218 10.259 54.218V50.0744C10.2186 50.0744 10.1784 50.0751 10.1381 50.0766L10.2824 54.2176ZM8.13847 52.1463V52.1471H12.2821V52.1463H8.13847ZM7.09231 54.218H10.2103V50.0745H7.09231V54.218ZM9.16411 57.0256V52.1463H5.02052V57.0256H9.16411ZM8.67693 61.8898C8.67693 60.251 8.84144 58.7378 9.1172 57.4639L5.06742 56.5873C4.72343 58.1763 4.53334 59.9854 4.53334 61.8898H8.67693ZM9.1172 66.3157C8.84144 65.0419 8.67693 63.5286 8.67693 61.8898H4.53334C4.53334 63.7943 4.72343 65.6034 5.06742 67.1924L9.1172 66.3157ZM9.16411 71.6334V66.7541H5.02052V71.6334H9.16411ZM10.2103 69.5616H7.09231V73.7052H10.2103V69.5616ZM8.13847 71.6326V71.6334H12.2821V71.6326H8.13847ZM10.259 69.5616C10.2669 69.5616 10.2746 69.5618 10.2824 69.562L10.1382 73.7031C10.1783 73.7045 10.2186 73.7052 10.259 73.7052V69.5616Z" fill="#321707" mask="url(#path-18-outside-2_29_86)"/>
</g>
<path id="Ellipse 3" d="M6.65385 72.6693C7.56097 72.6693 8.30114 72.1754 8.85121 71.5549C9.40235 70.9333 9.85135 70.0929 10.2074 69.1433C10.9225 67.2365 11.3436 64.6718 11.3436 61.8898C11.3436 59.1079 10.9225 56.5432 10.2074 54.6363C9.85135 53.6868 9.40235 52.8463 8.85121 52.2247C8.30114 51.6043 7.56097 51.1103 6.65385 51.1103C5.74672 51.1103 5.00655 51.6043 4.45648 52.2247C3.90535 52.8463 3.45634 53.6868 3.10025 54.6363C2.38519 56.5432 1.9641 59.1079 1.9641 61.8898C1.9641 64.6718 2.38519 67.2365 3.10025 69.1433C3.45634 70.0929 3.90535 70.9333 4.45648 71.5549C5.00655 72.1754 5.74672 72.6693 6.65385 72.6693Z" fill="#433C31" stroke="#321707" stroke-width="2.07179" stroke-linejoin="round"/>
<ellipse id="Ellipse 6" cx="6.45899" cy="61.8899" rx="1.51026" ry="3.21538" fill="#321707"/>
</g>
</g>
<g id="hand-1">
<path id="hand-1_2" d="M23.3244 63.6258C24.5195 61.1572 24.2994 59.5704 23.1856 57.1361C23.0261 56.7875 23.2761 56.3848 23.6595 56.3848H28.3547C28.5244 56.3848 28.6844 56.4676 28.7769 56.6098C30.6376 59.4701 30.5493 62.9031 29.6 64.3745C28.6574 65.8355 25.7022 66.6392 23.3998 64.1946C23.2562 64.042 23.2331 63.8144 23.3244 63.6258Z" fill="url(#paint1_linear_29_86)"/>
<path id="hand-1-stroke" d="M22.8282 56.3848C24.1581 59.0936 24.5875 60.7126 23.5401 63.1542C23.3335 63.6356 23.3812 64.209 23.7723 64.5574C26.0109 66.5518 28.7075 65.7578 29.6 64.3745C30.5743 62.8643 30.6416 59.2877 28.6256 56.3848" stroke="#321707" stroke-width="2.07179" stroke-linecap="round" stroke-linejoin="round"/>
</g>
<g id="hand-2">
<path id="hand-2_2" d="M54.6045 64.0657C55.8555 61.6079 56.1153 60.5927 55.0372 58.1881C54.8949 57.8706 55.0854 57.4979 55.4288 57.4423L59.5318 56.778C59.7286 56.7461 59.9273 56.8294 60.0353 56.997C61.8588 59.8279 61.6749 62.9112 60.7308 64.3745C59.7883 65.8353 56.9705 67.0492 54.6773 64.6327C54.533 64.4807 54.5095 64.2525 54.6045 64.0657Z" fill="url(#paint2_linear_29_86)"/>
<path id="hand-2-stroke" d="M54.7385 57.554C56.0667 60.2596 55.9774 61.2786 54.8367 63.6021C54.6058 64.0724 54.6571 64.6492 55.0527 64.9927C57.2691 66.9175 59.8392 65.7565 60.7308 64.3745C61.7051 62.8643 61.8698 59.6288 59.8539 56.7258" stroke="#321707" stroke-width="2.07179" stroke-linecap="round" stroke-linejoin="round"/>
</g>
</g>
</g>
<defs>
<radialGradient id="paint0_radial_29_86" cx="0" cy="0" r="1" gradientUnits="userSpaceOnUse" gradientTransform="translate(41 44.3512) rotate(89.8923) scale(25.918 29.1464)">
<stop stop-color="#FBE9CA"/>
<stop offset="1" stop-color="#DE1A00"/>
</radialGradient>
<linearGradient id="paint1_linear_29_86" x1="26.5444" y1="56.3848" x2="26.5444" y2="65.7583" gradientUnits="userSpaceOnUse">
<stop stop-color="#D94C1D" stop-opacity="0"/>
<stop offset="0.1" stop-color="#DC5024"/>
</linearGradient>
<linearGradient id="paint2_linear_29_86" x1="57.938" y1="56.7258" x2="57.938" y2="66.0074" gradientUnits="userSpaceOnUse">
<stop stop-color="#D94C1D" stop-opacity="0"/>
<stop offset="0.1" stop-color="#DC5024"/>
</linearGradient>
</defs>
</svg>
